<?xml version="1.0" standalone="no"?>
<!DOCTYPE svg PUBLIC "-//W3C//DTD SVG 20010904//EN"
 "http://www.w3.org/TR/2001/REC-SVG-20010904/DTD/svg10.dtd">
<svg version="1.0" xmlns="http://www.w3.org/2000/svg"
 width="959.000000pt" height="711.000000pt" viewBox="0 0 959.000000 711.000000"
 preserveAspectRatio="xMidYMid meet">
<metadata>
Created by potrace 1.16, written by Peter Selinger 2001-2019
</metadata>
<g transform="translate(0.000000,711.000000) scale(0.100000,-0.100000)"
fill="#FFFFFF" stroke="none">
<path d="M8345 6905 c-282 -45 -450 -199 -512 -470 -17 -76 -18 -193 -18
-2625 l0 -2545 22 -87 c52 -203 147 -314 303 -354 76 -19 189 -15 262 11 99
35 191 154 228 293 7 29 16 42 28 42 14 0 26 -33 61 -165 l44 -165 234 0 233
0 0 1610 0 1610 -355 0 -355 0 0 -235 0 -235 35 0 35 0 -2 -1116 c-3 -1103 -3
-1116 -23 -1130 -31 -23 -87 -14 -102 16 -10 20 -12 527 -10 2513 2 2450 2
2489 21 2503 28 20 63 17 86 -6 20 -20 20 -33 20 -1085 l0 -1065 325 0 326 0
-4 1113 c-3 1035 -4 1116 -21 1171 -55 182 -165 302 -334 363 -135 49 -358 65
-527 38z"/>
<path d="M280 3866 l0 -3026 419 0 c244 0 452 5 498 11 225 31 393 141 463
304 50 115 50 121 50 1278 0 1190 1 1161 -61 1278 -45 84 -122 143 -231 178
-47 15 -49 37 -5 46 53 12 130 54 174 97 55 54 91 137 104 240 6 53 9 466 7
1133 -3 1031 -4 1051 -24 1117 -55 177 -165 279 -366 340 -70 21 -93 22 -550
26 l-478 3 0 -3025z m737 2469 c12 -9 27 -32 33 -53 14 -51 14 -2033 0 -2084
-13 -46 -43 -68 -92 -68 l-38 0 0 1110 0 1110 38 0 c21 0 47 -7 59 -15z m2
-2681 c53 -37 51 -3 51 -1134 0 -1124 1 -1103 -48 -1129 -12 -6 -39 -11 -61
-11 l-41 0 0 1145 0 1145 38 0 c21 0 48 -7 61 -16z"/>
<path d="M1840 3865 l0 -3025 320 0 320 0 0 3025 0 3025 -320 0 -320 0 0
-3025z"/>
<path d="M2693 6883 l-143 -4 0 -274 0 -275 150 0 150 0 0 -2745 0 -2745 320
0 320 0 0 2745 0 2745 150 0 150 0 0 280 0 280 -477 -2 c-263 -1 -542 -4 -620
-5z"/>
<path d="M3870 3866 l0 -3026 320 0 320 0 0 1200 0 1200 44 0 44 0 6 -82 c3
-46 22 -571 42 -1168 19 -597 37 -1100 40 -1118 l5 -32 325 0 326 0 -6 58 c-3
31 -40 639 -82 1349 l-75 1293 35 57 c19 32 45 92 58 133 l23 75 0 1300 c0
1214 -1 1304 -18 1365 -58 214 -186 335 -419 397 -53 14 -134 17 -525 20
l-463 4 0 -3025z m739 2440 c13 -13 27 -41 32 -63 13 -57 12 -2330 -2 -2392
-13 -60 -45 -91 -95 -91 l-34 0 0 1285 0 1285 38 0 c28 0 45 -7 61 -24z"/>
<path d="M5440 3865 l0 -3025 320 0 320 0 0 3025 0 3025 -320 0 -320 0 0
-3025z"/>
<path d="M6230 3865 l0 -3025 285 0 285 0 0 858 c0 832 -1 885 -40 1822 -22
531 -40 971 -40 978 0 22 45 10 47 -13 2 -11 70 -821 153 -1800 83 -979 153
-1795 156 -1813 l5 -32 294 0 295 0 0 3025 0 3025 -290 0 -290 0 0 -814 0
-814 45 -904 c24 -497 46 -929 49 -960 4 -51 2 -58 -14 -58 -14 0 -21 9 -24
33 -5 28 -316 3490 -316 3510 0 4 -135 7 -300 7 l-300 0 0 -3025z"/>
</g>
</svg>
